<?xml version="1.0" standalone="no"?>
<!DOCTYPE svg PUBLIC "-//W3C//DTD SVG 20010904//EN"
 "http://www.w3.org/TR/2001/REC-SVG-20010904/DTD/svg10.dtd">
<svg version="1.0" xmlns="http://www.w3.org/2000/svg"
 width="539.000000pt" height="539.000000pt" viewBox="0 0 539.000000 539.000000"
 preserveAspectRatio="xMidYMid meet">
<metadata>
Created by potrace 1.11, written by Peter Selinger 2001-2013
</metadata>
<g transform="translate(0.000000,539.000000) scale(0.100000,-0.100000)"
fill="#000000" stroke="none">
<path d="M2644 5377 c-12 -6 -45 -25 -75 -41 -29 -15 -69 -39 -89 -51 -19 -12
-78 -47 -130 -78 -52 -30 -221 -128 -375 -218 -154 -89 -293 -170 -308 -178
-16 -9 -36 -20 -45 -26 -10 -5 -98 -57 -197 -114 -99 -57 -192 -112 -207 -122
-15 -11 -30 -19 -33 -19 -3 0 -38 -20 -78 -44 -39 -23 -195 -114 -344 -200
l-273 -158 0 -294 c0 -162 2 -294 5 -294 2 0 37 20 77 44 104 62 357 210 398
233 42 24 1307 764 1633 956 l67 39 40 -26 c22 -14 42 -26 45 -26 2 0 34 -18
70 -40 36 -22 67 -40 70 -40 2 0 46 -24 97 -54 87 -50 901 -515 978 -559 132
-74 446 -252 550 -312 289 -167 374 -214 378 -210 9 9 4 577 -4 585 -5 4 -31
21 -59 36 -61 33 -333 187 -672 380 -139 79 -256 144 -260 144 -3 0 -14 6 -22
14 -9 7 -45 29 -81 48 -36 19 -150 83 -255 143 -240 136 -458 260 -605 343
-63 35 -149 84 -191 108 -42 24 -78 44 -80 44 -2 0 -13 -6 -25 -13z"/>
<path d="M2000 3983 c-793 -455 -996 -572 -1033 -592 -33 -18 -41 -23 -129
-75 l-66 -38 0 -1098 0 -1098 232 -133 c127 -72 245 -140 261 -149 17 -9 143
-81 280 -160 138 -79 270 -154 295 -168 25 -14 77 -44 115 -67 39 -22 77 -44
85 -48 8 -4 31 -17 50 -28 42 -25 386 -221 450 -257 25 -14 56 -32 70 -42 14
-9 33 -20 43 -23 20 -8 -19 -29 545 295 240 138 462 264 492 281 30 16 60 33
65 37 6 5 33 20 60 36 28 15 64 35 80 45 17 9 91 52 165 94 74 42 149 85 166
95 17 10 99 57 183 105 l151 87 -2 1100 -3 1101 -375 215 c-206 118 -395 226
-420 240 -25 14 -128 73 -230 132 -102 59 -255 146 -340 194 -85 49 -175 101
-200 116 -102 61 -316 180 -325 179 -6 0 -305 -169 -665 -376z m440 -1555 l0
-1193 110 -68 c60 -37 112 -67 117 -67 4 0 58 30 120 68 l112 67 1 1193 c0
655 2 1192 5 1192 3 0 246 -140 539 -311 l533 -310 0 -737 c1 -618 -2 -741
-13 -759 -8 -13 -18 -23 -23 -23 -5 0 -69 -36 -142 -79 -74 -44 -136 -77 -138
-75 -2 2 -4 340 -5 750 l-1 747 -212 128 -213 128 0 -1007 0 -1007 -58 -32
c-31 -18 -68 -39 -82 -48 -22 -13 -143 -82 -240 -137 -19 -11 -65 -38 -103
-60 -71 -41 -87 -42 -137 -8 -14 9 -126 74 -250 145 -124 70 -230 134 -235
140 -7 8 -10 356 -10 1009 0 548 -3 996 -7 996 -6 0 -415 -231 -436 -246 -4
-2 -4 -47 -2 -867 1 -346 0 -630 -2 -632 -3 -4 -303 167 -316 179 -4 4 -7 341
-7 749 l-1 742 41 26 c22 14 72 43 110 64 39 20 75 41 80 45 6 4 33 20 60 35
48 27 363 208 655 377 74 43 138 78 143 78 4 0 7 -537 7 -1192z"/>
</g>
</svg>
